<?xml version="1.0" encoding="UTF-8" standalone="no"?>
<!-- Generator: Adobe Illustrator 27.5.0, SVG Export Plug-In . SVG Version: 6.00 Build 0)  -->

<svg
   version="1.1"
   x="0px"
   y="0px"
   viewBox="0 0 557.51398 353.57199"
   xml:space="preserve"
   id="svg699"
   sodipodi:docname="content-pattern.svg"
   width="557.51398"
   height="353.57199"
   inkscape:version="1.2.2 (b0a84865, 2022-12-01)"
   xmlns:inkscape="http://www.inkscape.org/namespaces/inkscape"
   xmlns:sodipodi="http://sodipodi.sourceforge.net/DTD/sodipodi-0.dtd"
   xmlns:xlink="http://www.w3.org/1999/xlink"
   xmlns="http://www.w3.org/2000/svg"
   xmlns:svg="http://www.w3.org/2000/svg"><defs
   id="defs703" /><sodipodi:namedview
   id="namedview701"
   pagecolor="#ffffff"
   bordercolor="#000000"
   borderopacity="0.25"
   inkscape:showpageshadow="2"
   inkscape:pageopacity="0.0"
   inkscape:pagecheckerboard="0"
   inkscape:deskcolor="#d1d1d1"
   showgrid="false"
   inkscape:zoom="0.472"
   inkscape:cx="144.0678"
   inkscape:cy="230.9322"
   inkscape:window-width="1309"
   inkscape:window-height="678"
   inkscape:window-x="0"
   inkscape:window-y="25"
   inkscape:window-maximized="0"
   inkscape:current-layer="g696" />
<g
   id="OBJECTS"
   transform="translate(-192.486)">
	<g
   id="g696">
		<defs
   id="defs674">
			<rect
   id="SVGID_1_"
   width="750"
   height="500"
   x="0"
   y="0" />
		</defs>
		<clipPath
   id="SVGID_00000052079577674676907500000006830441633396789676_">
			<use
   xlink:href="#SVGID_1_"
   style="overflow:visible"
   id="use676" />
		</clipPath>
		
			<linearGradient
   id="SVGID_00000090290069131828511890000007068560077919992742_"
   gradientUnits="userSpaceOnUse"
   x1="131.16251"
   y1="609.30603"
   x2="642.72089"
   y2="-128.9247">
			<stop
   offset="0"
   style="stop-color:#C8CACC"
   id="stop679" />
			<stop
   offset="0.1387"
   style="stop-color:#D5D6D7"
   id="stop681" />
			<stop
   offset="0.3812"
   style="stop-color:#E4E5E6"
   id="stop683" />
			<stop
   offset="0.5713"
   style="stop-color:#EAEBEB"
   id="stop685" />
			<stop
   offset="0.7471"
   style="stop-color:#EEEFEF"
   id="stop687" />
			<stop
   offset="0.9274"
   style="stop-color:#FAFAFB"
   id="stop689" />
			<stop
   offset="0.976"
   style="stop-color:#FFFFFF"
   id="stop691" />
		</linearGradient>
		
			<path
   style="fill:url(#SVGID_00000090290069131828511890000007068560077919992742_)"
   d="m 758.168,270.386 -28.136,-16.245 27.386,-15.812 0.25,-0.144 v -32.489 l 0.5,-0.288 -0.5,-0.289 V 172.63 l -27.624,-15.949 27.396,-15.817 0.25,-0.143 V 107.08 l -28.886,16.677 -0.25,0.144 v 31.922 l -0.022,-0.013 v 33.067 l -26.243,15.151 c -0.242,-0.244 -0.55,-0.419 -0.893,-0.509 V 140.15 L 673.259,123.906 V 91.419 l -26.75,-15.443 c 0.045,-0.166 0.078,-0.337 0.078,-0.516 0,-0.178 -0.032,-0.348 -0.076,-0.512 L 673.01,59.65 673.26,59.506 V 27.608 l 27.114,15.653 v 65.551 l 27.243,-15.728 c 0.356,0.359 0.848,0.581 1.394,0.581 1.084,0 1.963,-0.879 1.963,-1.963 0,-0.91 -0.623,-1.669 -1.463,-1.891 V 27.053 l 27.931,-16.126 0.25,-0.144 V -22.862 L 729.51,-6.591 V -6.623 L 700.875,9.909 672.238,-6.623 v 33.076 l -27.864,16.087 -0.25,0.144 v 30.885 c -0.84,0.222 -1.463,0.981 -1.463,1.891 0,0.91 0.623,1.668 1.463,1.891 v 30.89 l 28.136,16.243 v 31.91 L 645.124,172.06 V 140.145 L 616.988,123.9 v -0.578 l -0.501,0.289 -0.499,-0.288 v 0.576 L 588.103,140 l -0.25,0.144 v 33.644 l 27.241,-15.728 c 0.356,0.359 0.849,0.583 1.395,0.583 0.546,0 1.039,-0.223 1.395,-0.583 l 26.241,15.149 v 65.557 l 28.636,-16.533 27.637,15.954 v 0 l 27.636,15.955 -27.136,15.667 -0.5,-0.289 v 0.578 l -0.5,0.289 0.5,0.289 v 32.489 l 28.136,16.244 v 30.309 c -0.84,0.222 -1.463,0.98 -1.463,1.891 0,1.084 0.879,1.963 1.963,1.963 1.084,0 1.963,-0.879 1.963,-1.963 0,-0.178 -0.031,-0.348 -0.076,-0.513 l 26.499,-15.299 0.25,-0.144 V 302.01 l -28.136,16.245 v -31.334 z m -28.613,-145.908 27.136,-15.666 v 31.331 l -27.136,15.666 z m 27.113,113.13 -27.136,15.667 v -31.333 l 27.136,-15.667 z m 0,-33.065 -27.136,-15.667 v -31.334 l 27.136,15.668 z m -27.636,-14.801 27.136,15.667 -12.327,7.117 -14.808,8.55 -26.25,-15.155 c 0.044,-0.164 0.076,-0.333 0.076,-0.512 0,-0.179 -0.032,-0.348 -0.076,-0.512 z m -28.635,-16.528 v 30.305 c -0.343,0.091 -0.652,0.265 -0.895,0.51 l -12.674,-7.317 -13.568,-7.833 v -31.331 l 13.568,7.833 z M 701.374,43.261 728.51,27.595 v 31.332 l -27.136,15.666 z m 0,63.819 V 75.749 L 728.51,60.083 v 29.729 c -0.84,0.223 -1.462,0.981 -1.462,1.891 0,0.178 0.031,0.348 0.076,0.512 z M 729.555,-5.462 756.691,-21.129 V 10.205 L 729.555,25.872 Z M 728.51,26.44 701.374,42.106 V 10.775 L 728.51,-4.891 Z M 673.238,-4.891 700.374,10.775 V 42.106 L 673.26,26.453 v -0.59 l -0.021,0.012 V -4.891 Z m -0.978,32.486 v 31.332 l -26.242,15.15 c -0.242,-0.244 -0.551,-0.418 -0.893,-0.509 V 43.261 Z m -27.136,80.067 V 77.35 c 0.341,-0.09 0.648,-0.263 0.891,-0.505 l 26.245,15.152 v 31.331 z m 55.273,33.065 v 31.331 l -13.568,-7.833 -13.568,-7.833 V 125.06 Z m -111.544,31.327 v -31.333 l 27.136,-15.667 v 29.734 c -0.84,0.222 -1.463,0.98 -1.463,1.891 0,0.178 0.031,0.346 0.075,0.51 z m 28.135,-17.266 v -29.733 l 27.136,15.667 v 31.331 l -25.748,-14.865 c 0.044,-0.163 0.075,-0.332 0.075,-0.51 0,-0.909 -0.622,-1.668 -1.463,-1.89 z m 28.136,18.426 27.136,-15.666 v 31.329 l -27.136,15.667 z m 0,32.486 27.136,-15.666 v 31.333 l -27.136,15.667 z m 28.136,15.665 v -31.331 l 13.568,7.833 12.181,7.032 c -0.044,0.164 -0.076,0.332 -0.076,0.51 0,0.91 0.623,1.668 1.463,1.891 v 29.731 z m 28.137,-14.066 c 0.342,-0.091 0.651,-0.265 0.893,-0.509 l 26.243,15.151 v 31.333 l -27.136,-15.667 z m 27.135,47.708 v 0 l 0.5,-0.288 0.5,0.289 v -0.001 l 26.636,15.379 -27.135,15.667 -27.136,-15.667 z m -27.135,16.246 27.136,15.667 v 31.333 l -27.136,-15.667 z m 55.271,32.488 v 31.333 l -26.243,15.151 c -0.242,-0.244 -0.55,-0.418 -0.892,-0.508 V 319.408 Z M 590.316,107.946 c 0,-0.178 -0.032,-0.348 -0.076,-0.512 l 26.499,-15.299 0.25,-0.144 V 27.051 L 643.074,11.99 c 0.356,0.499 0.936,0.826 1.595,0.826 1.084,0 1.963,-0.879 1.963,-1.963 0,-0.91 -0.623,-1.669 -1.463,-1.891 V -22.864 L 617.032,-6.617 V -38.529 L 587.897,-55.35 v 33.644 l 27.608,15.939 -27.152,15.676 -26.25,-15.154 c 0.044,-0.164 0.076,-0.333 0.076,-0.512 0,-1.084 -0.879,-1.963 -1.963,-1.963 -1.084,0 -1.963,0.879 -1.963,1.963 0,0.91 0.622,1.669 1.463,1.891 v 29.728 h -10e-4 V 58.929 L 532.08,74.883 504.944,59.216 532.33,43.403 532.58,43.259 V 10.772 l 0.5,-0.289 -0.5,-0.289 v -31.911 l 27.886,-16.099 0.25,-0.144 v -33.643 l -28.886,16.678 -0.25,0.143 v 31.91 l -27.136,-15.667 v -0.577 l -0.5,0.289 -28.636,-16.534 v 31.464 c -0.343,0.091 -0.652,0.266 -0.895,0.51 l -26.242,-15.149 v -33.058 l -28.136,16.245 v -0.007 l -28.885,16.677 -0.25,0.144 v 31.909 l -27.136,-15.666 v -0.577 l -0.5,0.288 -0.5,-0.288 v 0.577 L 335.129,-6.339 306.492,-22.87 V 10.194 L 279.357,25.86 V -6.052 l -29.136,-16.821 v 0.001 L 222.085,-39.117 V -6.05 L 195.842,9.1 c -0.356,-0.358 -0.848,-0.581 -1.393,-0.581 -1.084,0 -1.963,0.879 -1.963,1.963 0,1.084 0.879,1.963 1.963,1.963 0.545,0 1.038,-0.223 1.393,-0.581 l 26.243,15.151 v 33.067 l 28.886,-16.679 0.25,-0.144 V 11.348 l 27.136,15.666 V 60.078 L 305.599,44.35 c 0.242,0.244 0.551,0.419 0.893,0.509 v 30.885 l 29.137,16.82 V 60.078 l 28.136,16.244 V 42.679 L 336.13,26.725 363.263,11.06 391.9,27.594 V -5.471 l 27.136,-15.666 v 63.824 l -27.886,16.1 -0.25,0.144 v 33.645 l 27.243,-15.729 c 0.356,0.359 0.848,0.581 1.393,0.581 1.084,0 1.963,-0.879 1.963,-1.963 0,-0.91 -0.623,-1.668 -1.463,-1.891 V 43.262 l 27.886,-16.101 0.25,-0.144 V -4.894 l 27.137,15.666 v 30.31 c -0.84,0.222 -1.463,0.98 -1.463,1.891 0,0.178 0.032,0.347 0.076,0.512 l -26.499,15.299 -0.25,0.143 v 33.642 l 28.636,-16.532 28.137,16.245 28.136,-16.244 28.136,16.244 27.637,-15.955 v 29.729 c -0.84,0.222 -1.463,0.98 -1.463,1.891 0,1.084 0.879,1.963 1.963,1.963 1.082,-10e-4 1.961,-0.88 1.961,-1.964 z m 25.672,-16.532 -26.243,15.15 c -0.242,-0.244 -0.55,-0.418 -0.893,-0.509 V 75.749 l 0.5,-0.289 v 0 L 615.988,60.082 Z M 560.716,27.595 587.853,43.261 V 74.594 L 560.716,58.927 Z m 28.137,15.666 27.136,-15.666 V 58.927 L 588.853,74.593 Z M 615.988,26.44 588.852,42.106 V 10.775 l 27.136,-15.666 z m 28.18,-47.569 V 8.965 c -0.84,0.222 -1.462,0.98 -1.462,1.89 0,0.063 0.013,0.122 0.019,0.184 L 617.033,25.872 V -5.462 Z m -55.271,-32.489 27.136,15.667 v 31.333 l -27.136,-15.667 z m -28.18,49.752 c 0.342,-0.091 0.651,-0.265 0.893,-0.509 l 26.243,15.151 v 31.33 L 560.717,26.44 Z M 503.945,26.15 476.809,10.483 489.136,3.366 503.944,-5.184 531.08,10.483 518.753,17.6 Z m -27.636,-46.265 c 0.342,-0.091 0.65,-0.265 0.893,-0.509 l 25.743,14.862 -26.636,15.379 z m 27.135,13.488 -25.749,-14.866 c 0.044,-0.164 0.076,-0.334 0.076,-0.512 0,-0.178 -0.032,-0.347 -0.076,-0.511 l 25.749,-14.866 z m 0,33.643 V 58.35 L 477.695,43.483 c 0.044,-0.164 0.076,-0.333 0.076,-0.51 0,-0.91 -0.622,-1.668 -1.463,-1.891 V 11.349 Z m -27.135,17.847 c 0.343,-0.091 0.651,-0.265 0.894,-0.51 l 25.742,14.863 -26.636,15.378 z M 531.58,42.682 504.444,58.35 V 27.016 L 531.58,11.349 Z m 1,-96.885 27.136,-15.666 v 31.332 l -27.136,15.666 z m -1,32.487 V 9.617 L 504.444,-6.05 v -31.333 z m -28.636,-16.533 -25.742,14.863 c -0.242,-0.245 -0.551,-0.419 -0.894,-0.51 v -29.732 z m -55.772,-31.612 v 31.326 l -27.136,15.666 v -31.325 z m -84.407,48.723 V 10.193 L 335.629,25.859 V -5.472 Z m -55.273,0 27.137,15.666 V 25.859 L 321.061,18.026 307.493,10.193 V -21.138 Z M 334.629,58.345 321.061,50.512 308.88,43.48 c 0.045,-0.164 0.076,-0.333 0.076,-0.512 0,-0.91 -0.623,-1.669 -1.463,-1.891 v -29.73 l 13.568,7.833 13.568,7.833 z M 278.357,25.859 251.221,10.192 v -31.333 l 27.136,15.667 z m -55.272,-63.244 27.136,15.668 V 9.616 L 223.085,-6.051 Z m -26.749,47.355 26.249,-15.155 27.136,15.667 -12.327,7.117 -14.809,8.55 -26.249,-15.155 c 0.044,-0.164 0.076,-0.334 0.076,-0.512 0,-0.178 -0.032,-0.348 -0.076,-0.512 z m 53.885,32.711 -27.136,15.668 V 27.015 l 27.136,-15.667 z m 29.136,15.664 V 27.014 l 27.136,-15.666 v 29.73 c -0.84,0.222 -1.463,0.981 -1.463,1.891 0,0.178 0.032,0.347 0.076,0.512 z M 334.629,90.833 307.492,75.167 V 44.86 c 0.343,-0.09 0.651,-0.265 0.894,-0.509 l 12.675,7.317 13.568,7.833 z M 362.765,74.59 335.629,58.923 V 27.591 l 27.136,15.666 z M 390.9,25.862 363.764,10.195 V -21.138 L 390.9,-5.471 Z m 1,-32.488 v -31.331 l 27.136,-15.666 v 31.331 z m 55.272,-30.748 V -6.049 L 420.036,9.617 V -21.708 Z M 391.9,90.842 V 59.508 l 27.136,-15.667 v 29.732 c -0.84,0.222 -1.463,0.98 -1.463,1.891 0,0.179 0.032,0.348 0.076,0.512 z M 447.172,26.439 420.036,42.107 V 10.773 l 27.136,-15.667 z m 1,-63.819 25.749,14.865 c -0.044,0.164 -0.076,0.333 -0.076,0.51 0,0.91 0.623,1.669 1.463,1.891 V 9.617 L 448.172,-6.049 Z m 0,96.886 26.243,-15.151 c 0.242,0.244 0.551,0.418 0.893,0.509 V 75.171 L 448.171,90.837 V 59.506 Z m 55.772,31.622 -27.136,-15.667 26.636,-15.378 v 0 l 0.5,-0.289 0.5,0.289 v 0 l 26.636,15.378 z m 29.136,-15.667 27.135,-15.667 27.137,15.667 -27.137,15.667 z"
   clip-path="url(#SVGID_00000052079577674676907500000006830441633396789676_)"
   id="path694"
   sodipodi:nodetypes="cccccccccccccccccccccccscccccccsscccccccccccccscccccccccccccccscccccccccccccccssscccccccccccccccccccccccccccscccccccccccccccccccsccccccccccccccccccccccccccccccccccccccccccscccccccscccccccccccccccscccscccccsccccccccccccccccccccscccccsscccccccccsssccccccccccccccccccccccccccccccccccccccccccccccssscccccccccccccccccccccccccsscccccccsccccccccccscscccccccccccccccccccccccccccscccccccccscccccsccccccccccccccsccccccsccccccccccccccccccccccccccccccccccccccccccccccccscccccccccccccccccccccsccccccccccscccccccccccccccccccccccccccccccccscccccccccsccccccccccccccccccccccccc" />
	</g>
</g>
</svg>
