<?xml version="1.0" encoding="UTF-8" standalone="no"?>
<!-- Generator: Adobe Illustrator 27.5.0, SVG Export Plug-In . SVG Version: 6.00 Build 0)  -->

<svg
   version="1.1"
   x="0px"
   y="0px"
   viewBox="0 0 532.58008 500"
   xml:space="preserve"
   id="svg31"
   sodipodi:docname="sidebar-pattern.svg"
   width="532.58008"
   height="500"
   inkscape:version="1.2.2 (b0a84865, 2022-12-01)"
   xmlns:inkscape="http://www.inkscape.org/namespaces/inkscape"
   xmlns:sodipodi="http://sodipodi.sourceforge.net/DTD/sodipodi-0.dtd"
   xmlns:xlink="http://www.w3.org/1999/xlink"
   xmlns="http://www.w3.org/2000/svg"
   xmlns:svg="http://www.w3.org/2000/svg"><defs
   id="defs35">
	

	

		<defs
   id="defs6">
			<rect
   id="SVGID_1_"
   width="750"
   height="500"
   x="0"
   y="0" />
		</defs>
		<clipPath
   id="SVGID_00000052079577674676907500000006830441633396789676_">
			<use
   xlink:href="#SVGID_1_"
   style="overflow:visible"
   id="use8" />
		</clipPath>
		
			<linearGradient
   id="SVGID_00000090290069131828511890000007068560077919992742_"
   gradientUnits="userSpaceOnUse"
   x1="131.16251"
   y1="609.30603"
   x2="642.72089"
   y2="-128.9247">
			<stop
   offset="0"
   style="stop-color:#C8CACC"
   id="stop11" />
			<stop
   offset="0.1387"
   style="stop-color:#D5D6D7"
   id="stop13" />
			<stop
   offset="0.3812"
   style="stop-color:#E4E5E6"
   id="stop15" />
			<stop
   offset="0.5713"
   style="stop-color:#EAEBEB"
   id="stop17" />
			<stop
   offset="0.7471"
   style="stop-color:#EEEFEF"
   id="stop19" />
			<stop
   offset="0.9274"
   style="stop-color:#FAFAFB"
   id="stop21" />
			<stop
   offset="0.976"
   style="stop-color:#FFFFFF"
   id="stop23" />
		</linearGradient>
		
			
	</defs><sodipodi:namedview
   id="namedview33"
   pagecolor="#ffffff"
   bordercolor="#000000"
   borderopacity="0.25"
   inkscape:showpageshadow="2"
   inkscape:pageopacity="0.0"
   inkscape:pagecheckerboard="0"
   inkscape:deskcolor="#d1d1d1"
   showgrid="false"
   inkscape:zoom="0.472"
   inkscape:cx="375"
   inkscape:cy="255.29661"
   inkscape:window-width="1309"
   inkscape:window-height="879"
   inkscape:window-x="0"
   inkscape:window-y="25"
   inkscape:window-maximized="0"
   inkscape:current-layer="svg31" />

<path
   id="path26"
   clip-path="url(#SVGID_00000052079577674676907500000006830441633396789676_)"
   style="fill:url(#SVGID_00000090290069131828511890000007068560077919992742_)"
   d="m 448.17188,-71.59375 -28.13672,16.244141 v -0.0059 l -12.9375,7.46875 c 0.54894,0.06926 1.08322,0.146134 1.55859,0.25586 l 10.37891,-5.992188 v 20.203125 c 0.3334,0.158051 0.6666,0.316551 1,0.47461 v -21.248047 l 27.13672,-15.667969 v 31.326172 l -17.55469,10.134765 c 0.36837,0.174728 0.7371,0.348703 1.10547,0.523438 l 16.44922,-9.496094 v 16.330078 c 0.33331,0.06585 0.6667,0.131302 1,0.197266 v -16.535156 l 14.42578,8.328125 c 0.24678,-0.277015 0.43176,-0.502533 0.66601,-0.769532 l -15.09179,-8.71289 z m 27.13671,16.232422 v 10.332031 c 0.2963,-1.035748 0.63644,-2.60629 1,-4.21875 v -4.380859 l 1.03907,0.599609 c 0.0884,-0.332603 0.19401,-0.65357 0.28906,-0.988281 z m 56.27149,2.445312 v 1.777344 c 0.33634,-0.02442 0.6673,-0.01287 1,-0.01758 v -0.888672 c -0.34103,-0.294631 -0.66992,-0.584481 -1,-0.871094 z M 25.611328,132.6543 c -1.08399,0 -1.962891,0.87889 -1.96289,1.96289 0,0.91 0.6229,1.67058 1.46289,1.89258 v 30.30859 l -28.6367186,16.5332 28.1367186,16.24414 -27.3867186,15.8125 -0.25,0.14453 v 32.48829 l -0.5,0.28906 0.5,0.28906 v 32.49024 l 27.6249996,15.94921 -27.396484,15.81641 -0.25,0.14258 v 33.64258 l 28.886719,-16.67774 0.25,-0.14258 v -31.92187 l 0.02148,0.0117 v -33.06641 l 26.242188,-15.15234 c 0.24199,0.244 0.549578,0.41976 0.892578,0.50976 v 30.88477 l 27.636718,15.95312 -27.386718,15.81055 -0.25,0.14453 v 32.50195 l -26.21875,15.13868 c -0.356,-0.359 -0.849532,-0.58203 -1.394532,-0.58203 -1.08398,0 -1.96289,0.87889 -1.96289,1.96289 0,0.91 0.6229,1.66862 1.46289,1.89062 v 62.75977 l -27.9316401,16.12695 -0.25,0.14453 v 33.64258 l 0.044922,-0.0254 v 31.9375 l 28.1367181,16.24219 v 0.57812 l 0.501954,-0.28906 0.498046,0.28711 v -0.57422 l 27.886719,-16.10156 0.25,-0.14258 v -33.64453 l -27.24414,15.73047 c -0.355,-0.359 -0.847579,-0.58204 -1.392579,-0.58204 -0.54499,0 -1.038531,0.22304 -1.394531,0.58204 L -1.5253906,475.7207 25.132812,460.32812 v 0.0332 l 28.634766,-16.53321 28.636719,16.53321 v -33.07617 l 27.863283,-16.08789 0.25,-0.14258 v -30.88477 c 0.84,-0.222 1.46289,-0.98062 1.46289,-1.89062 0,-1.084 -0.87889,-1.96289 -1.96289,-1.96289 -1.084,0 -1.96289,0.87889 -1.96289,1.96289 0,0.178 0.0312,0.34772 0.0762,0.51172 l -26.498048,15.29882 -0.25,0.14454 v 31.89648 L 54.267578,410.47852 v -64.41211 l 27.615234,-15.94336 28.634768,16.5332 v -33.06641 l 26.24414,-15.15039 c 0.242,0.244 0.54958,0.41682 0.89258,0.50782 v 30.88867 l 26.74804,15.4414 c -0.044,0.164 -0.0762,0.33372 -0.0762,0.51172 0,0.178 0.0312,0.34772 0.0762,0.51172 l -26.49804,15.30078 -0.25,0.14258 v 64.93945 l -26.08399,15.06055 c -0.356,-0.499 -0.9367,-0.82422 -1.5957,-0.82422 -1.084,0 -1.96289,0.87889 -1.96289,1.96289 0,0.91 0.62289,1.66863 1.46289,1.89063 v 31.82617 l 28.13477,-16.24609 v 31.9121 l 29.13671,16.82227 v -33.64453 l -27.60742,-15.93945 27.15039,-15.67579 26.25,15.1543 c -0.044,0.164 -0.0742,0.33372 -0.0742,0.51172 0,1.084 0.87899,1.96289 1.96289,1.96289 1.085,0 1.9629,-0.87889 1.96289,-1.96289 0,-0.91 -0.62289,-1.66762 -1.46289,-1.89062 v -62.79297 l 27.63477,-15.95703 27.13672,15.66796 -27.38672,15.8125 -0.25,0.14258 v 32.49024 l -0.5,0.28906 0.5,0.28906 v 31.91016 l -27.88477,16.09961 -0.25,0.14258 v 33.64257 l 28.88477,-16.67773 0.25,-0.14258 v -31.91015 l 27.13672,15.66601 v 0.57813 l 0.5,-0.28907 28.63672,16.53321 v -31.46485 c 0.343,-0.091 0.65153,-0.26476 0.89453,-0.50976 l 26.24219,15.15039 v 33.05664 l 28.13476,-16.24414 v 0.008 l 28.88672,-16.67773 0.25,-0.14454 v -31.91015 l 25.75,14.86719 c -0.045,0.165 -0.0762,0.33271 -0.0762,0.51171 0,1.084 0.87889,1.9629 1.96289,1.96289 1.084,0 1.96289,-0.87889 1.96289,-1.96289 -0.003,-0.9089 -0.62384,-1.66667 -1.46484,-1.88867 v -30.88672 l -29.13672,-16.82226 v 33.0664 L 335.60547,474.875 V 442.38867 L 306.9707,458.91992 279.33398,442.96484 V 412.6543 c 0.841,-0.222 1.4629,-0.97963 1.4629,-1.89063 0,-0.178 -0.0312,-0.34772 -0.0762,-0.51172 l 26.5,-15.29883 0.25,-0.14257 v -33.64258 l -28.63476,16.53125 -28.13867,-16.24414 -28.13477,16.24414 -27.63672,-15.95508 v -31.9082 l 28.63672,-16.53321 -28.63672,-16.5332 v -33.06836 l -28.88672,16.67969 -0.25,0.14258 v 31.91211 L 140.041,297.57031 c 0.044,-0.164 0.0762,-0.33372 0.0762,-0.51172 0,-0.91 -0.62189,-1.66862 -1.46289,-1.89062 v -62.79883 l 27.88476,-16.09961 0.25,-0.14258 v -33.64453 l -28.88476,16.67774 -0.25,0.14453 v 32.49219 l -27.63477,15.95507 -27.138671,-15.66992 27.388671,-15.8125 0.25,-0.14258 v -33.64453 l -28.886718,16.67774 -0.25,0.14453 v 64.40039 L 55.634766,248.83984 c 0.044,-0.164 0.07617,-0.33272 0.07617,-0.51172 0,-0.9099 -0.623854,-1.66862 -1.464844,-1.89062 v -30.88672 l -27.634766,-15.95508 27.134766,-15.66601 0.5,0.28906 v -0.57813 l 0.5,-0.28906 -0.5,-0.28906 V 150.57227 L 27.498047,135.13086 c 0.044,-0.164 0.07617,-0.33567 0.07617,-0.51367 0,-1.084 -0.878901,-1.96289 -1.962891,-1.96289 z M 27.003906,136 53.246094,151.15039 v 31.33399 L 26.109375,166.81641 v -30.30664 c 0.343,-0.091 0.652531,-0.26577 0.894531,-0.50977 z m -1.394531,31.68359 27.136719,15.66797 -26.634766,15.37891 v -0.002 l -0.5,0.28906 -0.5,-0.28906 v 0.002 L -1.5253906,183.35156 Z m 83.910155,16.53125 v 31.33399 l -27.136718,15.66601 v -31.33203 z m 56.26953,0 v 31.33399 l -27.13476,15.66601 v -31.33203 z m -139.679685,16.2461 27.136719,15.66797 v 30.30859 c -0.342,0.09 -0.649588,0.26481 -0.892578,0.50781 L 26.109375,231.79492 Z m -0.998047,0.002 v 31.33203 l -27.1367186,15.66797 v -31.33398 z m 0.498047,32.19922 26.25,15.1543 c -0.044,0.164 -0.07617,0.33381 -0.07617,0.51171 0,0.178 0.03117,0.34868 0.07617,0.51368 L 25.611328,263.99609 -1.5253906,248.32812 10.802734,241.21094 Z m 112.044925,0.28711 v 31.33398 l -8.87696,5.125 -18.25781,10.54102 v -31.33399 z m -55.271488,0.002 27.136718,15.66602 v 31.33203 l -13.568358,-7.83399 -13.56836,-7.83203 z m -84.4082026,16.24219 27.1367186,15.66797 v 31.33398 L -2.0253906,280.52734 Z m 57.1660156,0.51758 26.242187,15.15039 v 31.33008 L 54.246094,280.52539 v -30.30664 c 0.34299,-0.091 0.651531,-0.26381 0.894531,-0.50781 z m 138.787105,15.72265 v 31.33399 l -27.13867,15.66797 v -31.33399 z m -111.544918,0.004 13.56836,7.83398 13.568358,7.83204 v 31.33203 l -13.568358,-7.83399 -13.56836,-7.83203 z m 55.271488,0 v 29.73047 c -0.84,0.222 -1.46289,0.97962 -1.46289,1.89062 0,0.178 0.0322,0.34772 0.0762,0.51172 l -25.74805,14.86524 v -31.33008 l 15.50586,-8.95313 z m 56.77148,32.19727 27.13672,15.66601 -27.13477,15.66797 -27.13867,-15.66797 13.31055,-7.68359 z m -113.042968,0.29101 v 31.33008 L 54.246094,344.92188 V 313.5918 Z m 1,0 13.56836,7.83203 13.568358,7.83399 v 31.33008 L 82.382812,329.25586 Z m -57.292968,0.002 v 31.33204 l -27.1386721,15.66601 v -31.33203 z m 114.457036,0.51172 26.24218,15.15235 v 30.30859 c -0.342,0.09 -0.64958,0.26481 -0.89258,0.50781 L 138.6543,329.25781 v -30.30859 c 0.343,-0.091 0.65058,-0.26577 0.89258,-0.50977 z m 27.24218,15.72852 27.13867,15.66601 v 31.33399 l -25.75,-14.86719 c 0.044,-0.164 0.0762,-0.33372 0.0762,-0.51172 0,-0.909 -0.62385,-1.66667 -1.46485,-1.88867 z M 53.267578,346.65625 v 31.33203 L 26.132812,393.6543 v -29.72852 c 0.84,-0.222 1.462891,-0.98158 1.462891,-1.89258 0,-0.178 -0.03117,-0.34576 -0.07617,-0.50976 z m 111.628902,0.51758 c 0.242,0.244 0.54958,0.41781 0.89258,0.50781 v 30.30664 l -0.5,0.28906 -26.63476,15.37891 v -31.33203 z m 2.78711,0 25.74219,14.85937 -26.63672,15.37696 v -29.72852 c 0.343,-0.091 0.65253,-0.26381 0.89453,-0.50781 z m 26.74219,15.43555 0.50195,0.29101 v -0.002 l 26.63477,15.37695 -27.13477,15.66797 -27.13867,-15.66797 z m 56.27149,0 27.13671,15.66601 -26.63671,15.37891 -0.5,0.28906 -0.5,-0.28906 -26.63477,-15.37891 z m 55.77343,0.29101 v 31.33203 l -26.24218,15.15039 c -0.242,-0.244 -0.55154,-0.41876 -0.89454,-0.50976 v -30.30664 z m -139.68164,16.24219 27.13867,15.66797 v 31.33007 l -27.13867,-15.66601 z m 111.54492,0 v 29.73047 c -0.343,0.091 -0.65153,0.26672 -0.89453,0.51172 l -25.74218,-14.86329 z m -225.064449,0.002 v 31.33008 L 26.132812,426.14067 V 394.8106 Z m 112.519529,0 v 31.33008 L 138.6543,426.14067 V 394.8106 Z m -57.16211,0.51563 c 0.242,0.244 0.55058,0.41876 0.89258,0.50976 v 30.30664 L 82.382812,426.14263 V 394.8106 Z m 141.57227,15.72656 v 31.33398 l -27.13672,15.66602 v -31.33203 z m 0.99805,0 25.75,14.86719 c -0.044,0.164 -0.0762,0.33176 -0.0762,0.50976 0,0.91 0.62094,1.66863 1.46094,1.89063 v 29.73242 L 251.19727,426.7207 Z M 53.269531,411.63086 v 31.33203 l -27.136719,15.66602 v -31.33203 z m 0.998047,0 27.115234,15.65234 v 0.58985 l 0.02148,-0.0117 v 30.76562 L 54.267578,442.96094 Z m 111.521482,0 v 31.33203 l -27.13476,15.66602 v -31.33203 z m 1,0.002 27.13867,15.66602 v 30.30469 c -0.343,0.091 -0.65253,0.26381 -0.89453,0.50781 l -26.24414,-15.14844 z m 83.90821,15.95508 27.13671,15.66602 -12.32617,7.11718 -14.80859,8.54883 -27.13672,-15.66601 12.32812,-7.11719 z m -225.607426,0.27734 v 31.33399 L -2.0488281,474.86523 V 443.5332 Z m 112.519536,0 v 31.33399 l -27.13477,15.66601 v -30.09179 c 0.84,-0.222 1.46289,-0.97963 1.46289,-1.89063 0,-0.063 -0.0116,-0.12259 -0.0176,-0.18359 z m 226.13281,0.01 27.13672,15.66797 v 30.30859 c -0.342,0.091 -0.65058,0.26382 -0.89258,0.50782 l -26.24414,-15.15235 z m -140.67969,16.24414 27.13672,15.66797 v 31.33398 L 223.0625,475.45312 Z m 55.27148,0 v 29.73242 c -0.343,0.091 -0.65057,0.26577 -0.89257,0.50977 l -25.74219,-14.86328 z m 1,0 27.13672,15.66602 v 31.33203 l -25.74804,-14.86524 c 0.044,-0.164 0.0742,-0.33176 0.0742,-0.50976 0,-0.91 -0.6219,-1.66863 -1.4629,-1.89063 z m 55.27344,0 v 31.32422 l -27.13672,15.66797 v -31.32617 z m -195.99804,16.23438 27.13671,15.66796 v 31.33204 l -27.13671,-15.6663 z m 112.58789,0.01 25.75,14.86719 c -0.044,0.164 -0.0762,0.33372 -0.0762,0.51172 0,0.178 0.0312,0.34772 0.0762,0.51172 l -25.75,14.86523 z m 111.54492,0 v 31.33203 l -27.13672,15.66602 V 476.0293 Z M 53.269531,476.59766 v 31.33398 l -27.136719,15.66602 v -29.73047 c 0.84,-0.222 1.462891,-0.97963 1.462891,-1.89063 0,-0.178 -0.03217,-0.34772 -0.07617,-0.51172 z m -55.2734372,0.002 25.7480472,14.86523 c -0.044,0.164 -0.07422,0.33372 -0.07422,0.51172 0.001,0.911 0.6229,1.66863 1.46289,1.89063 v 29.73047 L -2.0039062,507.93164 Z m 336.6113262,0.006 v 31.32617 l -27.13672,15.66602 v -31.32422 z m -112.54492,0.004 v 31.33007 l -27.13477,15.66602 v -31.33008 z m 55.37891,0.51367 c 0.242,0.244 0.55057,0.41876 0.89257,0.50976 v 29.73242 l -26.63476,-15.3789 z" />
</svg>
